:version 1.10
:name ASF
:units
  mass 1
  length 1
  angle deg
:documentation
  ASF file generated by Kaydara
:root
  axis xyz
  order  tx ty tz rx ry rz
  position 0 0 0
  orientation 0 0 0
:bonedata
  begin
    id 1
    name RightUpLegDummy
    direction -0.718183 -0.695806 0.00816078
    length 4.904
    axis 0 0 0 xyz
  end
  begin
    id 2
    name RightUpLeg
    direction -0.0736652 -0.994202 0.0783343
    length 17.4976
    axis -2.72909 -3.00389 -4.00133 xyz
    dof rx ry rz
  end
  begin
    id 3
    name RightLeg
    direction -0.0389037 -0.994596 -0.0962598
    length 16.5821
    axis 3.95836 -18.5909 -4.46993 xyz
    dof rx ry rz
  end
  begin
    id 4
    name RightFoot
    direction -0.311643 -0.412678 0.855906
    length 3.77069
    axis -1.99483 -18.8351 -3.27644 xyz
    dof rx ry rz
  end
  begin
    id 5
    name RightToes
    direction -0.317852 0.0389852 0.947339
    length 3.85082
    axis -2.00228 -18.1713 -3.25211 xyz
    dof rx ry rz
  end
  begin
    id 6
    name SpineDummy
    direction 8.3039e-015 1 4.44677e-016
    length 4.6813
    axis 0 0 0 xyz
  end
  begin
    id 7
    name Spine
    direction -0.000262373 0.999988 0.00493267
    length 10.1015
    axis -0.00246081 0.00062579 0.0150362 xyz
    dof rx ry rz
  end
  begin
    id 8
    name Spine1
    direction 0 0 0
    length 0
    axis -0.00349562 0.000650293 0.0196666 xyz
    dof rx ry rz
  end
  begin
    id 9
    name HEadDummy
    direction -0.000343232 0.999999 0.00123745
    length 3.43865
    axis -0.00349562 0.000650293 0.0196666 xyz
  end
  begin
    id 10
    name HEad
    direction -0.0461221 0.980933 0.188796
    length 5.12695
    axis -0.00351404 -7.04812 0.0199272 xyz
    dof rx ry rz
  end
  begin
    id 11
    name LeftShoulder1Dummy
    direction 0.998904 -0.0399089 -0.0244534
    length 3.5433
    axis -0.00349562 0.000650293 0.0196666 xyz
  end
  begin
    id 12
    name LeftShoulder1
    direction 0.99951 1.64443e-005 0.0312999
    length 4.05031
    axis -0.00349562 0.000650293 0.0196666 xyz
    dof rx ry rz
  end
  begin
    id 13
    name LeftArm
    direction 0.984791 0.0515299 0.165927
    length 12.9126
    axis -64.823 -10.7743 5.20463 xyz
    dof rx ry rz
  end
  begin
    id 14
    name LeftForeArm
    direction 0.984968 0.0534808 0.16425
    length 10.8596
    axis -30.0462 -7.70601 1.87451 xyz
    dof rx ry rz
  end
  begin
    id 15
    name LeftHand
    direction 0.975871 0.0289682 0.216418
    length 6.62295
    axis -20.1348 -6.98077 1.86072 xyz
    dof rx ry rz
  end
  begin
    id 16
    name RightShoulderDummy
    direction -0.998877 -0.0405946 -0.0244307
    length 3.5433
    axis -0.00349562 0.000650293 0.0196666 xyz
  end
  begin
    id 17
    name RightShoulder
    direction -0.998933 -0.0249743 -0.0388558
    length 4.05031
    axis -0.0205316 -4.02113 1.41395 xyz
    dof rx ry rz
  end
  begin
    id 18
    name RightArm
    direction -0.997559 0.068664 0.0127103
    length 12.9638
    axis -67.3882 1.84188 -6.15987 xyz
    dof rx ry rz
  end
  begin
    id 19
    name RightForeArm
    direction -0.991508 0.0912848 0.0926241
    length 10.8312
    axis -22.1975 3.41087 -4.28711 xyz
    dof rx ry rz
  end
  begin
    id 20
    name RightHand
    direction -0.989262 0.0600788 0.133232
    length 6.57864
    axis -12.2911 2.17515 -4.39675 xyz
    dof rx ry rz
  end
  begin
    id 21
    name LeftUpLegDummy
    direction 0.718183 -0.695806 0.00816078
    length 4.904
    axis 0 0 0 xyz
  end
  begin
    id 22
    name LeftUpLeg
    direction 0.0831398 -0.99469 0.0606531
    length 17.4976
    axis -1.71016 2.29552 4.63832 xyz
    dof rx ry rz
  end
  begin
    id 23
    name LeftLeg
    direction 0.0498442 -0.991778 -0.117862
    length 16.5821
    axis 5.13757 15.5727 5.13348 xyz
    dof rx ry rz
  end
  begin
    id 24
    name LeftFoot
    direction 0.269026 -0.433896 0.85986
    length 3.77069
    axis -0.576502 15.6961 4.10267 xyz
    dof rx ry rz
  end
  begin
    id 25
    name LeftToes
    direction 0.277311 0.0251143 0.960452
    length 3.85048
    axis -0.576502 15.6961 4.10267 xyz
    dof rx ry rz
  end
:hierarchy
  begin
    root RightUpLegDummy SpineDummy LeftUpLegDummy
    RightUpLegDummy RightUpLeg
    RightUpLeg RightLeg
    RightLeg RightFoot
    RightFoot RightToes
    SpineDummy Spine
    Spine Spine1
    Spine1 HEadDummy LeftShoulder1Dummy RightShoulderDummy
    HEadDummy HEad
    LeftShoulder1Dummy LeftShoulder1
    LeftShoulder1 LeftArm
    LeftArm LeftForeArm
    LeftForeArm LeftHand
    RightShoulderDummy RightShoulder
    RightShoulder RightArm
    RightArm RightForeArm
    RightForeArm RightHand
    LeftUpLegDummy LeftUpLeg
    LeftUpLeg LeftLeg
    LeftLeg LeftFoot
    LeftFoot LeftToes
  end

:SAMPLES-PER-SECOND 30
:FULLY-SPECIFIED
:DEGREES
39
root  -1.32016 5.99702 15.4858 -46.0445 -1.36601 3.38451
RightUpLeg  -86.214 -2.22564 -4.29473
RightLeg  85.5025 15.7004 -7.34103
RightFoot  34.5331 0.380541 -1.18422
RightToes  5.82077e-011 -3.18055e-015 -2.98177e-016
Spine  31.6992 1.78451 5.42882
Spine1  18.2842 2.28073 -2.67735
HEad  -16.709 -0.809 5.17723
LeftShoulder1  -3.88251e-019 9.70628e-020 -3.87848e-018
LeftArm  -17.318 72.5836 -60.0141
LeftForeArm  24.0565 -0.766351 -2.49554
LeftHand  -12.9934 -11.5389 77.4747
RightShoulder  5.45406 10.1782 25.3051
RightArm  -7.41029 -64.6174 23.9383
RightForeArm  7.65438 -0.94067 -6.8558
RightHand  -10.189 8.72192 -72.1894
LeftUpLeg  -87.9258 3.12181 -0.612265
LeftLeg  90.6841 -13.934 7.40665
LeftFoot  35.3382 1.32464 -2.7146
LeftToes  5.91571e-011 -3.44359e-011 -3.93244e-011
40
root  -1.31693 5.99153 15.4906 -46.0802 -1.42668 3.37787
RightUpLeg  -86.2009 -2.2182 -4.22756
RightLeg  85.5208 15.7014 -7.33551
RightFoot  34.5819 0.348637 -1.11138
RightToes  5.82077e-011 -3.18055e-015 -2.98177e-016
Spine  31.5136 1.81625 5.4127
Spine1  18.6463 2.26605 -2.59876
HEad  -16.3821 -0.810565 4.96196
LeftShoulder1  -3.88251e-019 9.70628e-020 -3.87848e-018
LeftArm  -17.3484 72.6417 -60.1545
LeftForeArm  23.9069 -0.779898 -2.58078
LeftHand  -13.0261 -11.5766 77.4881
RightShoulder  5.40463 10.1395 25.1047
RightArm  -7.59591 -64.6537 24.3444
RightForeArm  7.34234 -0.664342 -6.86322
RightHand  -9.99578 8.53353 -71.8705
LeftUpLeg  -87.9184 3.11177 -0.529048
LeftLeg  90.7206 -13.9381 7.40585
LeftFoot  35.3726 1.3303 -2.72281
LeftToes  5.91571e-011 -3.44359e-011 -3.93244e-011
41
root  -1.31267 5.98682 15.4929 -46.1365 -1.49018 3.38254
RightUpLeg  -86.1585 -2.21415 -4.15138
RightLeg  85.532 15.7113 -7.27797
RightFoot  34.6761 0.322596 -1.0512
RightToes  5.82077e-011 -3.18055e-015 -2.98177e-016
Spine  31.4263 1.84087 5.45269
Spine1  18.8711 2.28491 -2.58485
HEad  -16.3456 -0.695632 4.92689
LeftShoulder1  -3.88251e-019 9.70628e-020 -3.87848e-018
LeftArm  -17.0857 72.6714 -60.0924
LeftForeArm  23.6492 -0.797908 -2.69984
LeftHand  -13.0141 -11.5597 77.4937
RightShoulder  5.36394 10.0857 24.9797
RightArm  -7.50706 -64.7417 24.4436
RightForeArm  7.06179 -0.280965 -6.8573
RightHand  -9.82459 8.3332 -71.7127
LeftUpLeg  -87.8807 3.10459 -0.44938
LeftLeg  90.7516 -13.941 7.40665
LeftFoot  35.3961 1.3302 -2.71142
LeftToes  5.91571e-011 -3.44359e-011 -3.93244e-011
42
root  -1.30834 5.98268 15.4946 -46.2004 -1.54027 3.36989
RightUpLeg  -86.0913 -2.2233 -4.08176
RightLeg  85.5103 15.7151 -7.2673
RightFoot  34.7481 0.315925 -1.03513
RightToes  5.82077e-011 -3.18055e-015 -2.98177e-016
Spine  31.3867 1.82042 5.48381
Spine1  19.0309 2.26738 -2.62149
HEad  -16.6162 -0.358586 5.00182
LeftShoulder1  -3.88251e-019 9.70628e-020 -3.87848e-018
LeftArm  -17.0757 72.657 -60.0961
LeftForeArm  23.4234 -0.797207 -2.71824
LeftHand  -12.9463 -11.4759 77.485
RightShoulder  5.34229 10.0534 24.9197
RightArm  -7.44505 -64.7675 24.5632
RightForeArm  7.35754 -0.171581 -6.81366
RightHand  -9.95024 8.37942 -72.2263
LeftUpLeg  -87.8269 3.09333 -0.377162
LeftLeg  90.76 -13.9413 7.42089
LeftFoot  35.4141 1.32952 -2.71005
LeftToes  5.91571e-011 -3.44359e-011 -3.93244e-011
43
root  -1.30597 5.98138 15.4959 -46.2358 -1.58223 3.34872
RightUpLeg  -86.0495 -2.23379 -4.0187
RightLeg  85.4904 15.7123 -7.29956
RightFoot  34.7703 0.318135 -1.03978
RightToes  5.82077e-011 -3.18055e-015 -2.98177e-016
Spine  31.3395 1.77473 5.48857
Spine1  19.1391 2.22206 -2.6772
HEad  -16.8916 -0.0305606 5.00662
LeftShoulder1  -3.88251e-019 9.70628e-020 -3.87848e-018
LeftArm  -17.6332 72.6122 -60.3755
LeftForeArm  23.3703 -0.761842 -2.53936
LeftHand  -12.8441 -11.3331 77.5287
RightShoulder  5.3391 10.0582 24.8931
RightArm  -7.53754 -64.74 24.7622
RightForeArm  7.51208 -0.123722 -6.81722
RightHand  -9.96106 8.36849 -72.33
LeftUpLeg  -87.7962 3.08708 -0.310552
LeftLeg  90.7713 -13.9436 7.41783
LeftFoot  35.4163 1.3309 -2.72357
LeftToes  5.91571e-011 -3.44359e-011 -3.93244e-011
44
root  -1.30515 5.98339 15.4961 -46.2327 -1.61384 3.34106
RightUpLeg  -86.0533 -2.25205 -3.95669
RightLeg  85.4977 15.7126 -7.30032
RightFoot  34.7822 0.322624 -1.04968
RightToes  5.82077e-011 -3.18055e-015 -2.98177e-016
Spine  31.2857 1.75383 5.47399
Spine1  19.202 2.18705 -2.68632
HEad  -17.061 0.0875114 4.88028
LeftShoulder1  -3.88251e-019 9.70628e-020 -3.87848e-018
LeftArm  -18.2931 72.5742 -60.7504
LeftForeArm  23.3387 -0.720799 -2.3291
LeftHand  -12.7483 -11.1737 77.6593
RightShoulder  5.33727 10.0682 24.8643
RightArm  -7.61846 -64.751 24.8422
RightForeArm  6.4799 0.435352 -6.95627
RightHand  -9.32182 7.85397 -70.7459
LeftUpLeg  -87.8018 3.08906 -0.264022
LeftLeg  90.7964 -13.9476 7.39872
LeftFoot  35.4109 1.32843 -2.71772
LeftToes  5.91571e-011 -3.44359e-011 -3.93244e-011
45
root  -1.3052 5.98367 15.4946 -46.2201 -1.6229 3.34435
RightUpLeg  -86.0682 -2.29724 -3.9013
RightLeg  85.502 15.7153 -7.2654
RightFoot  34.8176 0.338193 -1.08408
RightToes  5.82077e-011 -3.18055e-015 -2.98177e-016
Spine  31.2516 1.75525 5.43936
Spine1  19.2608 2.15155 -2.63488
HEad  -17.2838 0.0808853 4.69732
LeftShoulder1  -3.88251e-019 9.70628e-020 -3.87848e-018
LeftArm  -18.3122 72.6112 -60.8062
LeftForeArm  23.0877 -0.72159 -2.35737
LeftHand  -12.6932 -11.0707 77.775
RightShoulder  5.32627 10.0588 24.8205
RightArm  -7.57486 -64.7876 24.7931
RightForeArm  4.79451 1.32597 -7.13198
RightHand  -8.34222 6.99356 -68.3887
LeftUpLeg  -87.818 3.08959 -0.254985
LeftLeg  90.8052 -13.9479 7.39683
LeftFoot  35.4288 1.31544 -2.68764
LeftToes  5.91571e-011 -3.44359e-011 -3.93244e-011
46
root  -1.30603 5.98014 15.4885 -46.2341 -1.60345 3.33636
RightUpLeg  -86.0453 -2.37621 -3.85589
RightLeg  85.4758 15.7124 -7.24352
RightFoot  34.8508 0.370105 -1.1551
RightToes  5.82077e-011 -3.18055e-015 -2.98177e-016
Spine  31.2556 1.73279 5.38457
Spine1  19.3306 2.09512 -2.59274
HEad  -17.6034 0.0767767 4.53176
LeftShoulder1  -3.88251e-019 9.70628e-020 -3.87848e-018
LeftArm  -17.6685 72.7335 -60.4626
LeftForeArm  22.6842 -0.763748 -2.61515
LeftHand  -12.6929 -11.0694 77.7779
RightShoulder  5.31469 10.0488 24.7747
RightArm  -7.54809 -64.7694 24.8382
RightForeArm  4.14555 1.69892 -7.16997
RightHand  -7.98574 6.64481 -67.5658
LeftUpLeg  -87.8018 3.08171 -0.276538
LeftLeg  90.7705 -13.9439 7.41211
LeftFoot  35.4634 1.31069 -2.67516
LeftToes  5.91571e-011 -3.44359e-011 -3.93244e-011
47
root  -1.30872 5.97661 15.4761 -46.2869 -1.56126 3.30508
RightUpLeg  -85.97 -2.48787 -3.80678
RightLeg  85.4419 15.7086 -7.23868
RightFoot  34.8479 0.404017 -1.23118
RightToes  5.82077e-011 -3.18055e-015 -2.98177e-016
Spine  31.3007 1.68304 5.32877
Spine1  19.3837 2.04078 -2.59429
HEad  -17.8738 0.0636485 4.42588
LeftShoulder1  -3.88251e-019 9.70628e-020 -3.87848e-018
LeftArm  -17.1392 72.8321 -60.1519
LeftForeArm  22.4361 -0.79588 -2.80591
LeftHand  -12.7251 -11.1242 77.7294
RightShoulder  5.31047 10.0551 24.7397
RightArm  -7.67814 -64.712 25.0558
RightForeArm  4.91394 1.31903 -7.08195
RightHand  -8.43625 7.07351 -68.6302
LeftUpLeg  -87.7342 3.06084 -0.305869
LeftLeg  90.7093 -13.9372 7.41655
LeftFoot  35.4776 1.32002 -2.6939
LeftToes  5.91571e-011 -3.44359e-011 -3.93244e-011
48
root  -1.31229 5.974 15.4653 -46.3588 -1.5207 3.25763
RightUpLeg  -85.8791 -2.62273 -3.73272
RightLeg  85.4334 15.7077 -7.21716
RightFoot  34.8267 0.423158 -1.27451
RightToes  5.82077e-011 -3.18055e-015 -2.98177e-016
Spine  31.3702 1.65505 5.30797
Spine1  19.3961 2.00922 -2.57171
HEad  -18.0192 0.0566887 4.41202
LeftShoulder1  -3.88251e-019 9.70628e-020 -3.87848e-018
LeftArm  -17.2702 72.8137 -60.2416
LeftForeArm  22.472 -0.786884 -2.75564
LeftHand  -12.7428 -11.144 77.7383
RightShoulder  5.30559 10.0584 24.7064
RightArm  -7.85755 -64.7025 25.2675
RightForeArm  5.84266 0.840355 -7.01854
RightHand  -8.91181 7.49488 -69.8164
LeftUpLeg  -87.6522 3.03725 -0.32351
LeftLeg  90.6651 -13.9315 7.40857
LeftFoot  35.4726 1.32422 -2.70402
LeftToes  5.91571e-011 -3.44359e-011 -3.93244e-011
49
root  -1.31202 5.96864 15.4619 -46.4177 -1.51261 3.20825
RightUpLeg  -85.8234 -2.74879 -3.63253
RightLeg  85.4509 15.7106 -7.1738
RightFoot  34.8192 0.432619 -1.29589
RightToes  5.82077e-011 -3.18055e-015 -2.98177e-016
Spine  31.4369 1.66493 5.33978
Spine1  19.3573 1.97838 -2.48486
HEad  -18.0733 0.144284 4.45736
LeftShoulder1  -3.88251e-019 9.70628e-020 -3.87848e-018
LeftArm  -17.6795 72.7525 -60.5032
LeftForeArm  22.6059 -0.762841 -2.61788
LeftHand  -12.7326 -11.1151 77.7942
RightShoulder  5.29384 10.0432 24.6692
RightArm  -7.88676 -64.7556 25.3145
RightForeArm  6.24527 0.709397 -7.00416
RightHand  -9.10978 7.6512 -70.3541
LeftUpLeg  -87.6132 3.03976 -0.324152
LeftLeg  90.6658 -13.9309 7.40055
LeftFoot  35.48 1.31381 -2.68047
LeftToes  5.91571e-011 -3.44359e-011 -3.93244e-011
50
root  -1.30899 5.96152 15.4649 -46.451 -1.53153 3.16768
RightUpLeg  -85.8087 -2.83576 -3.53583
RightLeg  85.4811 15.7152 -7.12687
RightFoot  34.8155 0.44927 -1.33332
RightToes  5.82077e-011 -3.18055e-015 -2.98177e-016
Spine  31.4912 1.66694 5.3896
Spine1  19.2594 1.93499 -2.42168
HEad  -18.0368 0.285172 4.47382
LeftShoulder1  -3.88251e-019 9.70628e-020 -3.87848e-018
LeftArm  -17.6966 72.7915 -60.4804
LeftForeArm  22.6279 -0.760709 -2.6047
LeftHand  -12.7421 -11.115 77.8367
RightShoulder  5.28781 10.0316 24.6572
RightArm  -7.73379 -64.811 25.2082
RightForeArm  6.56271 0.691669 -6.95368
RightHand  -9.34652 7.84777 -70.938
LeftUpLeg  -87.6194 3.08845 -0.329058
LeftLeg  90.701 -13.933 7.37494
LeftFoot  35.4901 1.29548 -2.63918
LeftToes  5.91571e-011 -3.44359e-011 -3.93244e-011
